<?xml version="1.0" standalone="no"?>
<!DOCTYPE svg PUBLIC "-//W3C//DTD SVG 20010904//EN"
 "http://www.w3.org/TR/2001/REC-SVG-20010904/DTD/svg10.dtd">
<svg version="1.0" xmlns="http://www.w3.org/2000/svg"
 width="97.000000pt" height="81.000000pt" viewBox="0 0 97.000000 81.000000"
 preserveAspectRatio="xMidYMid meet">

<g transform="translate(0.000000,81.000000) scale(0.100000,-0.100000)"
fill="#000000" stroke="none">
<path d="M300 575 c0 -53 62 -128 124 -149 l37 -13 -44 -17 c-25 -9 -53 -26
-62 -36 -23 -25 -11 -26 24 -1 15 11 39 23 54 26 26 7 26 6 17 -21 -16 -44
-51 -82 -94 -99 l-39 -16 5 25 c7 34 -8 34 -16 0 -10 -37 3 -45 49 -29 46 16
101 74 110 116 7 31 25 30 25 -1 0 -19 49 -84 57 -76 3 2 -4 17 -15 33 -11 15
-23 39 -27 51 -6 21 -4 23 17 17 49 -14 99 -64 113 -114 7 -22 5 -23 -21 -17
-19 5 -26 4 -19 -2 13 -13 49 -19 54 -9 18 39 -54 140 -110 152 -40 9 -45 22
-10 30 34 7 81 41 81 57 0 6 -8 4 -18 -5 -25 -23 -92 -50 -92 -37 0 27 43 90
73 109 49 30 69 28 61 -5 -5 -18 -3 -25 3 -21 15 9 22 56 11 63 -17 11 -97
-27 -123 -58 -14 -17 -29 -44 -32 -60 -6 -32 -23 -48 -23 -22 0 24 -42 94 -57
94 -8 0 -4 -13 12 -36 14 -20 25 -43 25 -50 0 -40 -86 10 -115 67 -20 39 -19
52 5 46 11 -3 22 -2 25 3 3 4 -5 10 -18 14 -35 9 -47 7 -47 -9z"/>
<path d="M425 583 c-26 -7 -75 -42 -75 -53 0 -5 17 2 37 16 30 20 49 25 93 24
71 -2 79 0 55 10 -22 9 -78 11 -110 3z"/>
<path d="M603 511 c31 -37 42 -86 32 -139 -5 -28 -4 -34 5 -25 34 33 -1 183
-45 192 -16 3 -14 -2 8 -28z"/>
<path d="M306 458 c-14 -54 0 -114 37 -163 27 -36 29 -8 2 31 -23 33 -26 48
-23 97 3 58 -5 75 -16 35z"/>
<path d="M567 277 c-23 -17 -42 -22 -92 -22 -65 0 -77 -9 -26 -20 40 -8 105
10 138 40 35 30 18 32 -20 2z"/>
</g>
</svg>
